<?xml version="1.0" standalone="no"?>
<!DOCTYPE svg PUBLIC "-//W3C//DTD SVG 1.1//EN" "http://www.w3.org/Graphics/SVG/1.1/DTD/svg11.dtd" >
<svg xmlns="http://www.w3.org/2000/svg">
<metadata></metadata>
<defs>
<font id="BotonMediumRegular" horiz-adv-x="1236" >
<font-face units-per-em="2048" ascent="1536" descent="-512" />
<missing-glyph horiz-adv-x="598" />
<glyph unicode="&#xfb01;" d="M53 0v211h140v637h-140v211h140v139q0 36 5.5 67.5t23.5 69t48.5 64.5t86.5 45t130 18q52 0 154 -16v-199q-18 2 -47 2q-72 0 -105.5 -28.5t-33.5 -98.5v-63h610v-848h135v-211h-502v211h90v637h-329v-637h106v-211h-512zM764 1217v229h301v-229h-301z" />
<glyph unicode="&#xfb02;" horiz-adv-x="1280" d="M53 0v211h140v637h-140v211h140v110q0 77 12.5 125t50.5 88q80 80 248 80q56 0 162 -12v-209q-44 6 -72 6q-79 0 -109 -32t-30 -101v-55h194v-211h-190v-637h145v-211h-551zM680 0v211h139v1024h-90v211h363v-1235h129v-211h-541z" />
<glyph horiz-adv-x="0" />
<glyph horiz-adv-x="2048" />
<glyph unicode=" "  horiz-adv-x="598" />
<glyph unicode="&#x09;" horiz-adv-x="598" />
<glyph unicode="&#xa0;" horiz-adv-x="598" />
<glyph unicode="!" horiz-adv-x="681" d="M233 0v303h304v-303h-304zM233 1446h316l-41 -1024h-248q-21 823 -27 1024z" />
<glyph unicode="&#x22;" horiz-adv-x="614" d="M55 1518h203l-55 -609h-90zM356 1518h205l-55 -609h-90z" />
<glyph unicode="#" horiz-adv-x="1282" d="M68 434v201h251l29 203h-233v198h260l57 410h201l-58 -410h220l55 410h201l-56 -410h217v-198h-245l-27 -203h229v-201h-258l-61 -434h-201l62 436h-217l-62 -436h-201l60 434h-223zM520 635h217l29 203h-219z" />
<glyph unicode="$" horiz-adv-x="1193" d="M113 0v508h223q12 -135 85 -227.5t202 -92.5q80 0 141 48.5t61 136.5q0 36 -8.5 64.5t-29 52t-42 40.5t-61.5 35.5t-72.5 31t-89.5 33.5q-9 3 -14 5q-42 16 -68.5 26.5t-67 28.5t-67 35.5t-59 42t-53 52.5t-39.5 62.5t-28 77t-9 91.5q0 94 32.5 170t88 124.5t123.5 76.5 t143 34v209h213v-225q48 -20 76 -41t55 -56l4 101h219v-496h-223q-42 291 -275 291q-86 0 -133 -48.5t-47 -109.5q0 -33 14.5 -61t34 -47.5t57.5 -40.5t66.5 -33.5t79.5 -32.5q55 -21 90.5 -35.5t80.5 -35t73.5 -37.5t62 -40t53.5 -46.5t41 -53.5t31.5 -63t17.5 -74t7 -88 q0 -165 -106.5 -277.5t-278.5 -131.5v-217h-213v237q-60 22 -95 50t-71 75l-4 -129h-221z" />
<glyph unicode="%" horiz-adv-x="1878" d="M41 991q0 72 12.5 138.5t41 128.5t71 107.5t108 73t146.5 27.5q83 0 150 -28.5t109 -74.5t69.5 -108.5t39 -126t11.5 -131.5q0 -96 -22.5 -179.5t-67.5 -150t-120.5 -105t-172.5 -38.5t-171.5 40t-117.5 108t-64.5 148.5t-21.5 170.5zM242 995q0 -47 3 -85.5t14 -83 t29.5 -74.5t51.5 -50t78 -20q56 0 94.5 29t56.5 81t24.5 104.5t6.5 119.5q0 40 -4 77t-15.5 78t-30.5 71t-52 49.5t-76 19.5q-180 0 -180 -316zM586 0l559 1446h143l-555 -1446h-147zM1079 444q0 72 12.5 138.5t41 128.5t71 108t108 73.5t146.5 27.5q83 0 150 -28.5 t109 -74.5t69.5 -108.5t39 -126t11.5 -131.5q0 -77 -14 -145.5t-44 -129t-74 -104.5t-108.5 -69.5t-142.5 -25.5q-97 0 -171.5 40t-117.5 108t-64.5 148.5t-21.5 170.5zM1280 449q0 -61 6 -108.5t23 -98t54.5 -79t92.5 -28.5q56 0 94.5 29t56.5 81t24.5 104.5t6.5 119.5 q0 40 -4 77t-15.5 78t-30.5 71t-52 49.5t-76 19.5q-180 0 -180 -315z" />
<glyph unicode="&#x26;" horiz-adv-x="1536" d="M113 430q0 92 36.5 169.5t90.5 130t137 106.5q-48 83 -72 147.5t-24 142.5q0 89 37.5 157t100.5 107.5t138.5 59.5t159.5 20q72 0 140 -16t129 -49t97.5 -92t36.5 -137q0 -65 -26.5 -121.5t-57.5 -91.5t-95 -73.5t-96.5 -53t-104.5 -44.5q-6 -3 -9 -4q189 -209 320 -325 q20 61 28 188h262q-8 -119 -27.5 -199.5t-68.5 -177.5l291 -274h-367l-90 90q-99 -64 -189 -92.5t-206 -28.5q-83 0 -164 18t-154.5 56t-129.5 91.5t-89.5 130t-33.5 165.5zM389 446q0 -119 90.5 -195.5t212.5 -76.5q60 0 107 19.5t104 60.5q-203 192 -401 414 q-113 -98 -113 -222zM547 1114q0 -43 13.5 -77t41.5 -83q36 14 59 23t63.5 30t64.5 40.5t43.5 48.5t19.5 59q0 49 -46 75.5t-99 26.5q-72 0 -116 -36t-44 -107z" />
<glyph unicode="'" horiz-adv-x="313" d="M55 1518h203l-55 -609h-90z" />
<glyph unicode="(" horiz-adv-x="681" d="M145 553q0 454 115 780q13 34 59 148h246q-125 -451 -125 -930q0 -502 125 -938h-246q-41 97 -63 168q-111 336 -111 772z" />
<glyph unicode=")" horiz-adv-x="681" d="M115 -385q125 450 125 905q0 506 -125 963h245q172 -417 172 -940q0 -518 -172 -928h-245z" />
<glyph unicode="*" horiz-adv-x="854" d="M57 1190l105 166l182 -121l-12 211h190l-10 -211l178 121l101 -166l-203 -103l203 -102l-101 -166l-178 117l10 -217h-190l12 217l-182 -117l-94 166l190 102z" />
<glyph unicode="+" horiz-adv-x="1482" d="M190 541v215h416v438h271v-438h417v-215h-417v-445h-271v445h-416z" />
<glyph unicode="," horiz-adv-x="598" d="M61 -213l136 469h331l-260 -469h-207z" />
<glyph unicode="-" horiz-adv-x="894" d="M72 451v251h751v-251h-751z" />
<glyph unicode="." horiz-adv-x="598" d="M143 0v305h308v-305h-308z" />
<glyph unicode="/" horiz-adv-x="854" d="M-12 -211l624 1868h246l-633 -1868h-237z" />
<glyph unicode="0" d="M72 723q0 80 7.5 154.5t25 151t45 141.5t70.5 122.5t98 98t130.5 63.5t165.5 23q92 0 169 -23t133.5 -62.5t100.5 -97t72.5 -122t46.5 -142t25.5 -153t7.5 -158.5q0 -82 -8 -157.5t-27 -151t-48 -140t-73.5 -120.5t-101 -95t-133 -61.5t-166.5 -22.5q-123 0 -218.5 45 t-155 117.5t-98 173t-53.5 202.5t-15 214zM346 725q0 -543 279 -543q89 0 147 52t90.5 176t32.5 323q0 533 -274 533q-149 0 -212 -134t-63 -407z" />
<glyph unicode="1" d="M330 1120v232l266 94h190v-1235h134v-211h-533v211h125v983z" />
<glyph unicode="2" d="M90 0v238q223 219 395 397l58 58t62 63.5t55.5 60.5t53 66.5t39 64.5t29.5 71.5t9 70.5q0 84 -55.5 128t-141.5 44q-187 0 -203 -201h-264q0 129 65.5 225t172 143.5t237.5 47.5q92 0 173.5 -24t146.5 -70.5t103 -122t38 -170.5q0 -44 -12 -90t-27 -83t-45 -82.5 t-49 -71.5t-56.5 -67.5t-49.5 -54.5t-46 -47l-372 -383h452v203h217v-414h-985z" />
<glyph unicode="3" d="M55 416h273q29 -242 245 -242q108 0 182 62.5t74 169.5q0 125 -78 184t-206 59q-48 0 -94 -6v207q58 -4 88 -4q111 0 183.5 53t72.5 160q0 94 -62.5 153.5t-157.5 59.5q-99 0 -160.5 -57t-76.5 -154h-262q15 105 43.5 174t95.5 129q63 56 160.5 84.5t193.5 28.5 q74 0 144 -13t136 -43t115.5 -74t79 -109.5t29.5 -145.5q0 -98 -31 -165t-85 -107.5t-146 -76.5q140 -41 215.5 -122.5t75.5 -221.5q0 -107 -44.5 -191.5t-119 -134.5t-166.5 -76t-194 -26q-233 0 -367.5 111.5t-155.5 333.5z" />
<glyph unicode="4" d="M68 422v192l473 832h395v-832h244v-192h-244v-211h131v-211h-543v211h144v211h-600zM330 614h348v641z" />
<glyph unicode="5" d="M109 414h266q13 -103 71.5 -167.5t157.5 -64.5q112 0 176 74.5t64 187.5q0 77 -24 140t-79 105t-133 42q-62 0 -106 -25t-90 -75l-262 33l67 782h832v-385h-222v174h-383l-32 -387q125 94 274 94q136 0 234.5 -66.5t146 -173.5t47.5 -241q0 -125 -41.5 -221.5 t-113 -154.5t-160.5 -87t-191 -29q-95 0 -184 26.5t-165.5 87t-111.5 146.5q-27 65 -38 185z" />
<glyph unicode="6" d="M106 674q0 85 6.5 162.5t23.5 159.5t44 151t70.5 131t99.5 105t135 68.5t174 25.5q115 0 204 -34.5t141.5 -93.5t79 -132t26.5 -156h-264q-15 90 -65 146.5t-136 56.5q-56 0 -100.5 -21t-73 -58.5t-48.5 -81t-30.5 -97t-14.5 -98t-5 -91.5q135 123 317 123 q204 0 330.5 -134t126.5 -339q0 -224 -140.5 -360t-365.5 -136q-102 0 -184.5 26.5t-140 75t-99.5 112.5t-65.5 145t-34.5 165t-11 179zM381 469q0 -119 65.5 -206t180.5 -87q114 0 180.5 73t66.5 189q0 127 -64.5 204t-188.5 77q-111 0 -175.5 -69t-64.5 -181z" />
<glyph unicode="7" d="M98 1061v385h955v-195l-334 -1040h149v-211h-587v211h149l344 1024h-457v-174h-219z" />
<glyph unicode="8" d="M86 391q0 146 91.5 240t236.5 112q-133 31 -209 120.5t-76 226.5q0 102 44 178.5t118.5 119.5t161 64t182.5 21q74 0 143 -13t132 -43t109.5 -73.5t74.5 -108.5t28 -145q0 -134 -70.5 -222t-199.5 -127q148 -37 224.5 -118t76.5 -224q0 -85 -30 -157t-80.5 -121.5 t-118.5 -84t-143.5 -51t-155.5 -16.5q-101 0 -195 26.5t-172 76.5t-125 133t-47 186zM360 414q0 -107 76 -171.5t185 -64.5q106 0 183 65t77 169q0 112 -78 174.5t-193 62.5q-109 0 -179.5 -64t-70.5 -171zM395 1067q0 -90 67.5 -151.5t158.5 -61.5t158 60.5t67 150.5 q0 96 -66 152.5t-162 56.5q-93 0 -158 -59.5t-65 -147.5z" />
<glyph unicode="9" d="M80 414h276q0 -101 59.5 -166.5t162.5 -65.5q69 0 122 31t83.5 77.5t49.5 110t25 119t6 113.5q-71 -67 -142.5 -94t-172.5 -27q-214 0 -337.5 124.5t-123.5 338.5q0 228 139 365t367 137q543 0 543 -699q0 -88 -5.5 -165t-21.5 -161.5t-42 -152.5t-69 -131t-100 -105.5 t-137.5 -68t-179.5 -25.5q-107 0 -197 27t-159 80t-107.5 139.5t-38.5 198.5zM360 1001q0 -114 62 -192t174 -78t181 75.5t69 188.5q0 110 -65.5 188.5t-174.5 78.5q-113 0 -179.5 -73t-66.5 -188z" />
<glyph unicode=":" horiz-adv-x="681" d="M229 0v307h306v-307h-306zM229 752v309h306v-309h-306z" />
<glyph unicode=";" horiz-adv-x="681" d="M147 -213l138 471h323l-250 -471h-211zM256 758v303h305v-303h-305z" />
<glyph unicode="&#x3c;" horiz-adv-x="1482" d="M240 539v245l952 463v-258l-694 -317l694 -328v-272z" />
<glyph unicode="=" horiz-adv-x="1482" d="M203 299v227h1077v-227h-1077zM203 725v225h1077v-225h-1077z" />
<glyph unicode="&#x3e;" horiz-adv-x="1482" d="M291 72v258l694 317l-694 330v270l952 -467v-243z" />
<glyph unicode="?" horiz-adv-x="1024" d="M35 985q0 241 134 366.5t359 125.5q85 0 165 -25.5t143 -73t101 -121t38 -161.5q0 -117 -47 -204.5t-146 -189.5q-9 -9 -31 -32t-29 -30t-22.5 -25.5t-20.5 -28.5l-14 -28t-11.5 -34.5t-5.5 -39t-3 -48.5v-12h-264v65q0 59 7 98.5t30 76t41.5 57t66.5 67.5q8 7 36 34.5 t38 37.5t32 34t30.5 40t21 40.5t17 49t4.5 51.5q0 84 -46.5 137.5t-128.5 53.5q-65 0 -110.5 -21.5t-70.5 -63t-37 -87.5t-17 -109h-260zM356 0v303h308v-303h-308z" />
<glyph unicode="@" horiz-adv-x="1671" d="M68 571q0 185 69 351.5t186 286.5t279 190.5t342 70.5q297 0 484.5 -174t187.5 -450q0 -122 -39.5 -241t-103.5 -207.5t-149.5 -143.5t-172.5 -55q-75 0 -121.5 40.5t-50.5 110.5q-108 -151 -262 -151q-123 0 -199 92t-76 241q0 147 60.5 277.5t162 208.5t214.5 78 q153 0 215 -133l22 92h164l-92 -437q-29 -145 -29 -186q0 -72 47 -72q27 0 66 31q78 69 125 197t47 272q0 202 -137 328.5t-357 126.5q-147 0 -277.5 -57t-223.5 -155.5t-147 -236.5t-54 -295q0 -275 169.5 -437.5t456.5 -162.5q176 0 320.5 64t304.5 194l21 19l100 -121 q-188 -162 -358 -236.5t-394 -74.5q-237 0 -419 94t-281.5 265.5t-99.5 395.5zM631 545q0 -88 36 -138.5t99 -50.5q68 0 130.5 58.5t100 154.5t37.5 199q0 80 -38 126t-105 46q-104 0 -182 -118.5t-78 -276.5z" />
<glyph unicode="A" horiz-adv-x="1366" d="M8 0v211h119l336 1034h-103v201h666v-201h-106l311 -1034h121v-211h-529v211h121l-70 246h-421l-78 -246h114v-211h-481zM504 668h319l-155 567z" />
<glyph unicode="B" d="M45 0v211h137v1024h-137v211h623q64 0 113.5 -5.5t102.5 -21.5t97 -48t78 -81q65 -95 65 -217q0 -269 -258 -336q144 -13 216.5 -115.5t72.5 -242.5q0 -69 -17.5 -126t-47 -95.5t-72.5 -67.5t-87.5 -46t-99.5 -27t-101.5 -13.5t-100.5 -3.5h-584zM457 211h180 q106 0 169.5 49t63.5 152q0 98 -52.5 154.5t-149.5 56.5h-211v-412zM457 831h131q111 0 182.5 48.5t71.5 154.5q0 99 -63 150t-165 51h-157v-404z" />
<glyph unicode="C" d="M72 717q0 92 10 177t32.5 173.5t63 160.5t97 129.5t140.5 89.5t187 32q114 0 189 -38.5t124 -135.5l5 141h213v-485h-228q-7 146 -77.5 225.5t-186.5 79.5q-108 0 -188 -86q-56 -61 -80.5 -198t-24.5 -261q0 -66 6.5 -132t25 -143t48 -135t81 -96.5t118.5 -38.5 q52 0 94 23t69 59.5t45.5 83.5t27 91t9.5 87h277q-2 -88 -17.5 -164t-53.5 -149.5t-95.5 -125t-150 -83t-211.5 -31.5q-126 0 -224 43t-158 113.5t-98.5 170t-53.5 202.5t-15 221z" />
<glyph unicode="D" horiz-adv-x="1323" d="M49 0v211h131v1024h-131v211h490q270 0 395 -55q311 -140 311 -674q0 -501 -289 -647q-60 -31 -138 -47.5t-136.5 -19.5t-146.5 -3h-486zM453 209h106q103 0 170 19.5t125 82.5q57 64 85 182t28 226q0 65 -8 129t-26.5 132.5t-55.5 125.5t-89 88q-31 18 -69 27.5 t-66.5 11.5t-74.5 2h-125v-1026z" />
<glyph unicode="E" horiz-adv-x="1193" d="M37 0v211h141v1024h-141v211h1063v-488h-230v269h-415v-363h366v-213h-366v-440h415v311h230v-522h-1063z" />
<glyph unicode="F" horiz-adv-x="1110" d="M45 0v211h137v1024h-137v211h1006v-488h-228v267h-370v-357h329v-217h-329v-440h133v-211h-541z" />
<glyph unicode="G" horiz-adv-x="1323" d="M76 713q0 111 16.5 214.5t57.5 205.5t102 177.5t157.5 122t217.5 46.5q110 0 195.5 -42.5t127.5 -133.5l2 143h219v-488h-233q-11 129 -81.5 214t-194.5 85q-64 0 -115 -26t-83.5 -71.5t-55 -99t-34 -118.5t-16 -119t-4.5 -110q0 -52 5.5 -105.5t17.5 -115t35.5 -114 t55.5 -96.5t81 -69t110 -25q71 0 123.5 29t83.5 80.5t48 107t24 123.5h-256v211h518v-739h-223v168q-30 -72 -90 -117.5t-127.5 -62.5t-149.5 -17q-120 0 -214.5 44.5t-153.5 116.5t-97.5 171t-53.5 199.5t-15 210.5z" />
<glyph unicode="H" horiz-adv-x="1409" d="M43 0v211h139v1024h-139v211h547v-211h-133v-371h495v371h-137v211h545v-211h-133v-1024h133v-211h-545v211h137v440h-495v-440h133v-211h-547z" />
<glyph unicode="I" horiz-adv-x="641" d="M43 0v211h135v1024h-135v211h549v-211h-135v-1024h135v-211h-549z" />
<glyph unicode="J" horiz-adv-x="854" d="M6 27v241q151 -61 234 -61q170 0 170 190v838h-131v211h542v-211h-135v-838q0 -206 -93.5 -313t-301.5 -107q-133 0 -285 50z" />
<glyph unicode="K" horiz-adv-x="1323" d="M49 0v211h135v1024h-135v211h518v-211h-110v-422l413 422h-110v211h489v-211h-96l-365 -369l379 -655h107v-211h-531v211h111l-258 471l-139 -135v-336h110v-211h-518z" />
<glyph unicode="L" horiz-adv-x="1067" d="M43 0v211h135v1024h-135v211h541v-211h-133v-1024h325v305h225v-516h-958z" />
<glyph unicode="M" horiz-adv-x="1662" d="M47 0v211h131v1024h-131v211h547l233 -1071l240 1071h551v-211h-137v-1024h137v-211h-502v211h105v987l-287 -1198h-252l-276 1212v-1001h106v-211h-465z" />
<glyph unicode="N" horiz-adv-x="1366" d="M31 0v211h133v1024h-133v211h555l387 -1235v1024h-119v211h483v-211h-139v-1235h-414l-387 1235v-1024h125v-211h-491z" />
<glyph unicode="O" horiz-adv-x="1366" d="M72 727q0 124 21 233t68 205t117 164.5t174 108t234 39.5t233.5 -42.5t171.5 -113.5t113 -170t64.5 -207t19.5 -229q0 -126 -22 -236t-69.5 -204.5t-117 -162t-170 -105.5t-223.5 -38q-133 0 -239 40.5t-175 110t-115 167.5t-65.5 206.5t-19.5 233.5zM348 735 q0 -58 6 -115t19 -121.5t38 -118.5t59.5 -98.5t87.5 -70t118 -25.5q78 0 138.5 36t96 90.5t58.5 128t31 140.5t8 136q0 58 -5 112.5t-17 118.5t-35.5 116.5t-57 96.5t-86 69t-117.5 25q-80 0 -142 -33.5t-99 -85t-60.5 -122.5t-32 -138.5t-8.5 -140.5z" />
<glyph unicode="P" horiz-adv-x="1150" d="M43 0v211h141v1024h-141v211h557q58 0 103.5 -3.5t93.5 -13t85.5 -27.5t73 -45t63 -67.5t48.5 -93.5q37 -93 37 -209q0 -99 -31 -190q-20 -56 -48 -98t-64.5 -69t-73.5 -44.5t-86 -26t-91 -11.5t-98 -3h-153v-334h127v-211h-543zM459 748h116q125 0 185.5 58.5 t60.5 184.5q0 108 -52.5 177t-168.5 69h-141v-489z" />
<glyph unicode="Q" horiz-adv-x="1366" d="M74 711q0 128 19 238t64.5 209t114.5 168.5t175.5 110t242.5 40.5q129 0 231.5 -38t170.5 -103t112.5 -157.5t64 -196t19.5 -224.5q0 -87 -9.5 -172t-32 -176t-66.5 -170t-105 -129q-67 -55 -168 -93q94 -54 359 -170l-193 -176q-272 156 -561 330q-169 19 -297 191 q-141 191 -141 518zM356 729q0 -203 54 -344q24 -63 57.5 -105t72.5 -61t73 -26t77 -7q59 0 105.5 16.5t77 47.5t49 61t34.5 70q56 142 56 336q0 152 -21.5 257t-66 165t-104.5 86t-144 26q-165 0 -242.5 -128.5t-77.5 -393.5z" />
<glyph unicode="R" horiz-adv-x="1323" d="M45 0v211h135v1024h-135v211h717q391 0 391 -361q0 -140 -68 -234t-202 -112q36 -4 64 -14t47.5 -21t35.5 -34t25 -39.5t17.5 -50.5t12.5 -55t11 -64q1 -4 1.5 -6.5t0.5 -5.5l39 -238h120v-211h-358l-76 436q-10 57 -21.5 90.5t-33.5 59t-56.5 35.5t-88.5 10h-168v-420 h139v-211h-549zM455 846h217q98 0 152.5 47.5t54.5 144.5q0 102 -51 149.5t-152 47.5h-221v-389z" />
<glyph unicode="S" horiz-adv-x="1193" d="M111 0v514h227q20 -167 97.5 -244t185.5 -77q85 0 145.5 49.5t60.5 138.5q0 75 -51 125.5t-174 97.5l-123 47q-187 71 -271.5 164t-84.5 244q0 98 36 177t97 128t136.5 74.5t158.5 25.5q58 0 105.5 -11t75 -24t54 -38.5t36 -39t26.5 -40.5l4 127h221v-488h-227 q-1 25 -6.5 55.5t-23.5 74.5t-45 78.5t-77.5 59.5t-115.5 25q-85 0 -133 -46t-48 -110q0 -68 53 -112.5t152 -83.5l184 -72q46 -18 84.5 -37.5t84 -55.5t76.5 -78t52 -106t21 -139q0 -188 -120.5 -304.5t-319.5 -116.5q-59 0 -110 11t-82 25t-61.5 38t-42 36.5t-30.5 34.5 l-4 -127h-223z" />
<glyph unicode="T" d="M43 958v488h1151v-488h-225v271h-215v-1018h129v-211h-535v211h133v1018h-215v-271h-223z" />
<glyph unicode="U" horiz-adv-x="1280" d="M20 1235v211h525v-211h-123v-799q0 -112 53.5 -175.5t163.5 -63.5q113 0 168 62t55 173v803h-129v211h531v-211h-131v-768q0 -39 -2 -70.5t-12 -85.5t-28 -96t-54 -89.5t-84.5 -79t-125.5 -52.5t-172 -21q-99 0 -178 19t-131 49t-90 75t-58 87.5t-31.5 97t-14 93 t-2.5 85.5v756h-130z" />
<glyph unicode="V" horiz-adv-x="1366" d="M16 1235v211h535v-211h-131l270 -963l295 963h-131v211h494v-211h-113l-401 -1235h-326l-373 1235h-119z" />
<glyph unicode="W" horiz-adv-x="1921" d="M12 1235v211h506v-211h-125l168 -920l232 1131h342l233 -1131l184 920h-131v211h486v-211h-111l-278 -1235h-324l-242 1141l-235 -1141h-324l-270 1235h-111z" />
<glyph unicode="X" horiz-adv-x="1280" d="M43 0v211h119l325 526l-303 498h-104v211h506v-211h-107l172 -307l180 307h-106v211h485v-211h-120l-295 -498l325 -526h115v-211h-510v211h106l-204 342l-209 -342h90v-211h-465z" />
<glyph unicode="Y" d="M33 1235v211h536v-211h-151l221 -500l221 500h-147v211h493v-211h-90l-358 -754v-270h131v-211h-529v211h127v270l-356 754h-98z" />
<glyph unicode="Z" horiz-adv-x="1193" d="M127 0v211l664 1024h-416v-279h-230v490h957v-211l-656 -1020h431v299h225v-514h-975z" />
<glyph unicode="[" horiz-adv-x="724" d="M190 -387v1868h515v-215h-242v-1436h242v-217h-515z" />
<glyph unicode="\" horiz-adv-x="854" d="M-12 1657h237l633 -1868h-246z" />
<glyph unicode="]" horiz-adv-x="724" d="M23 -172h241v1438h-241v217h512v-1870h-512v215z" />
<glyph unicode="^" horiz-adv-x="1482" d="M188 580l430 866h254l422 -866h-270l-272 624l-279 -624h-285z" />
<glyph unicode="_" horiz-adv-x="1024" d="M-20 -256h1064v-211h-1064v211z" />
<glyph unicode="`" horiz-adv-x="598" d="M84 1579h301l129 -348h-211z" />
<glyph unicode="a" horiz-adv-x="1110" d="M68 293q0 83 32.5 147t83 102t121.5 62t139 32.5t144 8.5h84v57q0 38 -5 67.5t-19 60.5t-44.5 48t-75.5 17q-67 0 -106 -43.5t-39 -110.5h-272q15 177 124 261.5t297 84.5q90 0 181 -26t139 -82q29 -34 47 -74t25 -91t8.5 -84t1.5 -93v-426h135v-211h-362q-2 94 -2 137 q-55 -89 -129 -128.5t-181 -39.5q-151 0 -239 87.5t-88 236.5zM342 319q0 -62 42.5 -103.5t104.5 -41.5q88 0 136.5 59t48.5 148v108h-68q-264 0 -264 -170z" />
<glyph unicode="b" horiz-adv-x="1193" d="M39 0v211h127v1024h-127v211h399v-502q110 146 287 146q90 0 161 -34.5t115.5 -90t74 -129.5t41 -147t11.5 -150q0 -84 -13.5 -163t-46 -154t-80 -130.5t-121.5 -89t-165 -33.5q-189 0 -280 168v-137h-383zM430 535q0 -55 10.5 -111.5t33 -113.5t67 -92.5t104.5 -35.5 q48 0 85.5 24t59 60t35.5 84.5t18.5 90.5t4.5 85q0 57 -7.5 110.5t-27 113t-61.5 95.5t-103 36t-106 -34t-68.5 -89t-34 -111t-10.5 -112z" />
<glyph unicode="c" horiz-adv-x="1024" d="M80 520q0 89 11.5 167t41 153t75.5 127.5t120 85t170 32.5q175 0 276 -135l6 105h193v-379h-232q-15 207 -178 207q-203 0 -203 -353q0 -348 193 -348q74 0 119 58t53 135h260q-10 -192 -125.5 -298t-308.5 -106q-123 0 -215 41t-147 116t-82 173t-27 219z" />
<glyph unicode="d" horiz-adv-x="1193" d="M63 528q0 81 13 157.5t44 150t76.5 128t117 88t159.5 33.5q176 0 279 -124v274h-138v211h412v-1235h131v-211h-387q-2 65 -2 102q-60 -72 -129.5 -103.5t-163.5 -31.5q-89 0 -161 33.5t-118 88.5t-76.5 129.5t-43.5 151t-13 158.5zM344 520q0 -57 8 -109.5t27.5 -109.5 t61.5 -91t102 -34q65 0 111 37t68 98t31 119t9 119q0 48 -4.5 90.5t-18.5 89t-36 80t-60.5 55t-89.5 21.5q-52 0 -91.5 -25.5t-61 -63t-35 -89.5t-17.5 -95.5t-4 -91.5z" />
<glyph unicode="e" horiz-adv-x="1110" d="M74 530q0 121 28.5 221t86 175t150.5 117t214 42q126 0 221 -41.5t152.5 -117t85.5 -175t28 -221.5v-38h-692q0 -330 209 -330q88 0 139.5 47t63.5 135h276q-24 -182 -153 -278.5t-314 -96.5q-136 0 -232.5 38.5t-153.5 113t-83 175t-26 234.5zM358 666h402q0 97 -56 161 t-141 64q-93 0 -147.5 -65.5t-57.5 -159.5z" />
<glyph unicode="f" horiz-adv-x="681" d="M53 0v211h140v639h-140v211h140v100q0 111 22 160q64 141 295 141q84 0 172 -16v-205q-58 8 -88 8q-40 0 -66.5 -8.5t-41 -20.5t-21.5 -37t-8.5 -45.5t-1.5 -58.5v-18h194v-211h-190v-639h145v-211h-551z" />
<glyph unicode="g" horiz-adv-x="1193" d="M70 543q0 79 16 155t50.5 147t83.5 124.5t121.5 85.5t158.5 32q176 0 288 -145v119h371v-211h-127v-899q0 -99 -37 -178.5t-101 -130.5t-149.5 -78t-183.5 -27q-409 0 -471 348h289q18 -71 63 -103t121 -32q55 0 94 18t60 44t32.5 69t14 78.5t2.5 87.5v64 q-64 -63 -130.5 -93t-152.5 -30q-108 0 -190.5 50t-129.5 132.5t-70 177t-23 195.5zM352 537q0 -54 8.5 -107t29 -108t62 -89t99.5 -34q60 0 104.5 34t68.5 88t35 109t11 109q0 59 -10.5 114t-33.5 108t-68.5 85.5t-108.5 32.5q-47 0 -84 -24t-57.5 -60t-33.5 -84t-17.5 -90 t-4.5 -84z" />
<glyph unicode="h" d="M45 0v211h133v1024h-133v211h401v-506q89 147 285 147q134 0 215 -67q70 -57 92.5 -134.5t22.5 -187.5v-487h133v-211h-514v211h108v436q0 213 -151 213q-191 0 -191 -246v-403h109v-211h-510z" />
<glyph unicode="i" horiz-adv-x="641" d="M55 0v211h138v639h-138v211h412v-850h135v-211h-547zM145 1217v229h322v-229h-322z" />
<glyph unicode="j" horiz-adv-x="598" d="M-96 -219q93 -29 137 -29q41 0 68 13.5t39.5 41t17 55.5t4.5 68v920h-141v211h417v-1178q0 -174 -73.5 -262t-245.5 -88q-79 0 -223 35v213zM129 1214v232h317v-232h-317z" />
<glyph unicode="k" d="M51 0v211h129v1024h-129v211h395v-850l273 256h-94v209h497v-211h-121l-190 -172l285 -467h90v-211h-500v211h102l-174 307l-168 -156v-151h97v-211h-492z" />
<glyph unicode="l" horiz-adv-x="641" d="M41 0v211h137v1024h-137v211h410v-1235h131v-211h-541z" />
<glyph unicode="m" horiz-adv-x="1792" d="M61 0v211h136v639h-134v211h383l13 -137q99 163 307 163q199 0 266 -163q22 60 72.5 98t107 51.5t123.5 13.5q143 0 211 -74t68 -190v-612h131v-211h-510v211h113v459q0 94 -29.5 143t-114.5 49q-86 0 -127 -57.5t-41 -136.5v-457h109v-211h-481v211h110v479 q0 172 -141 172q-73 0 -121.5 -53t-48.5 -125v-473h106v-211h-508z" />
<glyph unicode="n" d="M53 0v211h140v639h-140v211h379l17 -133q42 78 116.5 118.5t165.5 40.5q174 0 253 -87t79 -259v-530h133v-211h-508v211h100v494q0 73 -35.5 116t-107.5 43q-76 0 -129 -50t-53 -126v-477h108v-211h-518z" />
<glyph unicode="o" horiz-adv-x="1150" d="M72 516q0 100 17 184t54.5 156.5t94.5 123t141 79t190 28.5q260 0 385 -146.5t125 -405.5q0 -123 -30.5 -225t-90.5 -179t-156.5 -119.5t-221.5 -42.5q-257 0 -382.5 143.5t-125.5 403.5zM348 524q0 -51 5 -95.5t20 -93t38.5 -82.5t65 -56.5t96.5 -22.5t96.5 21.5t66 55 t40 80.5t20.5 91.5t5 95.5q0 55 -4 99.5t-17.5 97t-37 87.5t-66.5 59t-101 24q-227 0 -227 -361z" />
<glyph unicode="p" horiz-adv-x="1193" d="M35 -217h133v1067h-133v211h371q4 -84 6 -154q40 88 125 135.5t190 47.5q88 0 158.5 -35t115.5 -91t74.5 -131.5t42 -152t12.5 -156.5q0 -82 -11.5 -157.5t-41 -149t-73.5 -127.5t-115 -87.5t-160 -33.5q-90 0 -157.5 34t-131.5 110v-330h135v-211h-540v211zM428 539 q0 -47 5 -91.5t19.5 -94.5t37.5 -86.5t63 -60.5t92 -24q49 0 87 23t60 57.5t36 81.5t19 89.5t5 86.5q0 46 -4 89t-17.5 93.5t-35.5 87.5t-60.5 62t-89.5 25q-63 0 -108.5 -33.5t-67.5 -88t-31.5 -107.5t-9.5 -109z" />
<glyph unicode="q" horiz-adv-x="1193" d="M70 512q0 70 9.5 136.5t29 132.5t53 120t79 96.5t110 66t141.5 23.5q185 0 301 -165l12 139h358v-211h-135v-1067h135v-211h-542v211h133v319q-55 -69 -120 -102t-153 -33q-87 0 -158 32t-117 85t-77.5 124.5t-45 147t-13.5 156.5zM344 539q0 -44 5 -90t20 -98 t37.5 -91.5t61.5 -65.5t89 -26q45 0 80 17t57 47.5t37 65t22.5 78t10 78t2.5 72.5q0 344 -213 344q-61 0 -104.5 -32t-65 -85t-30.5 -105t-9 -109z" />
<glyph unicode="r" horiz-adv-x="854" d="M57 0v211h136v639h-136v211h375l12 -211q34 111 111.5 171t192.5 60q48 0 73 -2v-258q-66 15 -106 15q-124 0 -186 -82t-62 -209v-334h137v-211h-547z" />
<glyph unicode="s" horiz-adv-x="980" d="M70 -8v381h204q8 -84 74.5 -151.5t155.5 -67.5q59 0 101 33t42 85q0 46 -33 72t-139 64l-149 53q-26 10 -41 16t-44.5 20.5t-48.5 29t-43.5 38.5t-38.5 50t-24 63.5t-10 79.5q0 137 94.5 232t251.5 95q166 0 272 -129l4 95h170v-365h-206q-5 89 -54 150t-135 61 q-54 0 -93.5 -27.5t-39.5 -78.5q0 -47 30 -71.5t85 -43.5l198 -74q36 -14 63.5 -27t64 -39.5t60 -57.5t40 -79.5t16.5 -107.5q0 -81 -31 -145t-83 -102t-115 -57.5t-131 -19.5q-56 0 -103 12t-83.5 35.5t-54.5 38.5t-44 41l-4 -102h-178z" />
<glyph unicode="t" horiz-adv-x="681" d="M18 850v211h148v248l254 59v-307h209v-211h-209v-512q0 -72 21.5 -103.5t90.5 -31.5q30 0 84 12v-203q-88 -18 -176 -18q-151 0 -219.5 59t-68.5 203v594h-134z" />
<glyph unicode="u" horiz-adv-x="1193" d="M20 850v211h408v-701q0 -75 34.5 -124.5t106.5 -49.5q85 0 124.5 59.5t39.5 147.5v457h-133v211h406v-850h129v-211h-379l-8 121q-57 -79 -117.5 -115.5t-153.5 -36.5q-153 0 -239 76t-86 231v574h-132z" />
<glyph unicode="v" horiz-adv-x="1067" d="M-2 850v211h485v-211h-104l158 -582l165 582h-112v211h461v-211h-105l-264 -850h-303l-281 850h-100z" />
<glyph unicode="w" horiz-adv-x="1662" d="M0 850v211h436v-211h-102l127 -569l213 780h315l217 -780l142 569h-103v211h418v-211h-86l-229 -850h-304l-225 793l-217 -793h-295l-235 850h-72z" />
<glyph unicode="x" horiz-adv-x="1110" d="M43 0v211h90l217 338l-196 301h-86v211h442v-211h-78l131 -209l131 209h-80v211h408v-211h-82l-203 -301l232 -338h84v-211h-457v211h82l-152 238l-139 -238h82v-211h-426z" />
<glyph unicode="y" horiz-adv-x="1110" d="M25 850v211h475v-211h-109l172 -571l172 571h-110v211h465v-211h-93l-348 -975q-30 -87 -52 -135t-52 -82q-93 -109 -289 -109q-42 0 -162 21v215q76 -27 142 -27q24 0 43 4t42.5 15.5t43 38.5t32.5 69l25 76l-311 889h-86z" />
<glyph unicode="z" horiz-adv-x="1024" d="M66 0v199l559 671h-322v-178h-227v369h862v-215l-549 -662h322v189h227v-373h-872z" />
<glyph unicode="{" horiz-adv-x="651" d="M16 471v154q78 14 111 31.5t48 59.5t15 132v336q0 84 11.5 138t41.5 94t83.5 57.5t136.5 17.5h164v-152h-33q-84 0 -109.5 -42t-25.5 -171v-305q0 -124 -34 -180t-134 -94q97 -32 132.5 -89t35.5 -184v-331q0 -35 2 -58.5t9.5 -50t21 -42t38.5 -26t60 -10.5h37v-151h-162 q-84 0 -138 17t-84 56.5t-41.5 93t-11.5 136.5v340q0 128 -32 168t-142 55z" />
<glyph unicode="|" horiz-adv-x="641" d="M188 -387v1868h265v-1868h-265z" />
<glyph unicode="}" horiz-adv-x="651" d="M25 -244h32q85 0 110.5 42t25.5 171v305q0 125 34 181t133 94q-97 32 -132 88.5t-35 183.5v332q0 35 -2 58.5t-9.5 49.5t-21.5 41.5t-39 26t-60 10.5h-36v152h161q84 0 138 -17t84 -56.5t41.5 -93t11.5 -136.5v-340q0 -128 32 -168t142 -55v-154q-78 -14 -111 -31.5 t-48 -59.5t-15 -132v-336q0 -84 -11.5 -138t-41.5 -94t-83.5 -57.5t-136.5 -17.5h-163v151z" />
<glyph unicode="~" horiz-adv-x="1482" d="M133 645q88 114 166.5 164.5t169.5 50.5q98 0 240 -69l122 -60q68 -33 102 -43t71 -10q59 0 110.5 32.5t122.5 116.5l119 -182q-100 -118 -177 -166.5t-171 -48.5q-52 0 -102.5 15.5t-141.5 60.5l-90 45q-115 59 -207 59q-61 0 -108.5 -33.5t-106.5 -113.5z" />
<glyph unicode="&#xa1;" horiz-adv-x="681" d="M131 0l45 1028h246l29 -1028h-320zM145 1145v301h306v-301h-306z" />
<glyph unicode="&#xa2;" horiz-adv-x="1024" d="M80 522q0 80 9.5 151.5t34 143.5t63.5 125.5t102 91t145 47.5v205h211v-219q75 -33 127 -106l6 100h195v-385h-232q-3 31 -7.5 55t-17 54.5t-30.5 50t-49.5 33.5t-73.5 14q-203 0 -203 -361q0 -44 3.5 -83.5t15 -88.5t31 -84.5t55.5 -59.5t84 -24q78 0 122 55.5t54 137.5 h260q-20 -170 -98.5 -269.5t-241.5 -128.5v-210h-211v215q-67 8 -145 57q-209 130 -209 483z" />
<glyph unicode="&#xa3;" horiz-adv-x="1280" d="M74 0v211h135l67 469h-145v207h172l16 90q10 54 16 83t18 77t27 78.5t36.5 66.5t52 62.5t68.5 46.5q48 25 142 38.5t157.5 15t167.5 1.5h57v-213h-57q-69 0 -101.5 -0.5t-81 -5t-69.5 -13t-51.5 -25.5t-44 -41.5t-31.5 -61.5t-28 -85t-19 -114h243v-207h-274l-62 -469 h465v338h230v-549h-1106z" />
<glyph unicode="&#xa4;" horiz-adv-x="1400" d="M82 1161l151 152l152 -150q143 99 317 99q176 0 316 -99l149 150l152 -152l-150 -149q99 -143 99 -320q0 -84 -22 -153.5t-77 -161.5l150 -150l-152 -151l-149 149q-150 -98 -322 -98q-89 0 -158.5 21.5t-154.5 76.5l-147 -147l-152 151l149 148q-100 137 -100 317 q0 91 23 165.5t75 152.5zM360 694q0 -148 99.5 -248t245.5 -100q139 0 237 100.5t98 243.5q0 150 -97.5 251t-240.5 101q-146 0 -244 -99.5t-98 -248.5z" />
<glyph unicode="&#xa5;" d="M33 1235v211h538v-211h-153l221 -492l221 492h-149v211h495v-211h-90l-168 -352h203v-178h-287l-67 -140h354v-178h-393v-176h129v-211h-527v211h127v176h-401v178h363l-66 140h-297v178h215l-170 352h-98z" />
<glyph unicode="&#xa6;" horiz-adv-x="641" d="M188 -387v788h265v-788h-265zM188 694v789h265v-789h-265z" />
<glyph unicode="&#xa7;" horiz-adv-x="1024" d="M66 586q0 92 44.5 160t127.5 133q-105 131 -105 258q0 107 55.5 185t142 114.5t191.5 36.5q83 0 153 -22.5t126.5 -68t92 -121t42.5 -174.5h-246q-11 189 -162 189q-65 0 -106 -39t-41 -104q0 -42 24.5 -83t65 -75t92.5 -71.5t105.5 -71.5t105.5 -76.5t92.5 -86t65 -99.5 t24.5 -117q0 -91 -44.5 -160.5t-125.5 -130.5q35 -51 53.5 -81.5t34 -78t15.5 -96.5q0 -107 -58 -184.5t-147 -113.5t-195 -36q-84 0 -156.5 24.5t-129 72t-89.5 125t-34 177.5h254v-22q0 -81 37.5 -134t115.5 -53q65 0 106.5 39t41.5 103q0 36 -15.5 69t-49.5 64.5 t-56.5 49t-64.5 46.5q-19 14 -61 42t-66.5 45t-62.5 46.5t-61.5 52t-51.5 55.5t-43.5 64t-26 69.5t-10.5 78.5zM309 596q0 -24 5.5 -44t25 -43.5t36.5 -40t62.5 -49t78 -54.5t106.5 -70q28 20 41.5 31t31 41.5t17.5 66.5q0 70 -72 137q-29 27 -235 172q-97 -61 -97 -147z " />
<glyph unicode="&#xa8;" horiz-adv-x="598" d="M4 1274v223h248v-223h-248zM346 1274v223h248v-223h-248z" />
<glyph unicode="&#xa9;" horiz-adv-x="1640" d="M92 723q0 200 96.5 367.5t264 264.5t368.5 97t368.5 -96.5t264 -263.5t96.5 -367q0 -152 -57 -287.5t-154.5 -233t-233 -154t-286.5 -56.5q-200 0 -367 97t-263.5 264.5t-96.5 367.5zM166 721q0 -182 86.5 -334.5t236.5 -241t330 -88.5q134 0 256 52.5t209.5 141.5 t139 212.5t51.5 259.5q0 138 -51 261t-138 212t-209 141t-258 52q-177 0 -327.5 -89.5t-238 -243.5t-87.5 -335zM418 727q0 209 94.5 335t251.5 126q155 0 233 -129v106h172v-319h-196q-25 172 -156 172q-83 0 -127.5 -79t-44.5 -226q0 -137 45.5 -209t132.5 -72 q68 0 105 39t47 125h209q-9 -163 -105 -251.5t-264 -88.5q-194 0 -295.5 120.5t-101.5 350.5z" />
<glyph unicode="&#xaa;" horiz-adv-x="724" d="M57 979q0 124 119 182q83 39 215 39h41v31q0 55 -17.5 87t-68.5 32q-76 0 -86 -97h-178q13 84 43 127q34 48 93 72.5t128 24.5q63 0 110.5 -15t74.5 -38t43.5 -57.5t22 -67.5t5.5 -74v-293h84v-139h-233v79q-16 -22 -25.5 -32.5t-32.5 -29t-56.5 -27.5t-76.5 -9 q-97 0 -151 58t-54 147zM233 993q0 -37 26.5 -60.5t64.5 -23.5q56 0 83 37t27 94v58h-43q-65 0 -111.5 -23.5t-46.5 -81.5z" />
<glyph unicode="&#xab;" horiz-adv-x="811" d="M53 571l166 340h201l-131 -340l137 -344h-199zM399 571l170 340h201l-139 -340l137 -342h-199z" />
<glyph unicode="&#xac;" horiz-adv-x="1482" d="M119 567v215h1145v-716h-271v501h-874z" />
<glyph unicode="&#xad;" horiz-adv-x="894" d="M72 451v251h751v-251h-751z" />
<glyph unicode="&#xae;" horiz-adv-x="1640" d="M92 723q0 200 96.5 367.5t264 264.5t368.5 97t368.5 -96.5t264 -263.5t96.5 -367q0 -152 -57 -287.5t-154.5 -233t-233 -154t-286.5 -56.5q-200 0 -367 97t-263.5 264.5t-96.5 367.5zM166 721q0 -182 86.5 -334.5t236.5 -241t330 -88.5q134 0 256 52.5t209.5 141.5 t139 212.5t51.5 259.5q0 138 -51 261t-138 212t-209 141t-258 52q-177 0 -327.5 -89.5t-238 -243.5t-87.5 -335zM455 289v145h88v582h-88v145h370q131 0 195 -20q67 -20 107 -78.5t40 -136.5q0 -176 -190 -217q76 -12 112 -47.5t48 -112.5l18 -115h76v-145h-246l-22 168 q-9 68 -18 103t-29 55t-43 24t-70 4h-68v-209h80v-145h-360zM735 776h86q158 0 158 121q0 61 -34 90t-105 29h-105v-240z" />
<glyph unicode="&#xaf;" horiz-adv-x="598" d="M4 1274v166h590v-166h-590z" />
<glyph unicode="&#xb0;" horiz-adv-x="724" d="M10 1192q0 147 102.5 250.5t249.5 103.5q148 0 250.5 -103t102.5 -251q0 -145 -104 -248.5t-249 -103.5t-248.5 103.5t-103.5 248.5zM215 1192q0 -60 43.5 -104t103.5 -44t104 44t44 104q0 61 -43.5 103t-104.5 42q-62 0 -104.5 -42t-42.5 -103z" />
<glyph unicode="&#xb1;" horiz-adv-x="1482" d="M188 0v217h1104v-217h-1104zM188 801v215h416v409h270v-409h418v-215h-418v-420h-270v420h-416z" />
<glyph unicode="&#xb2;" horiz-adv-x="839" d="M63 547v145q224 199 320 299q125 135 125 226q0 42 -31 72t-82 30q-58 0 -89 -35.5t-34 -95.5h-194q10 140 95 209t226 69q146 0 228 -69t82 -172q0 -118 -97 -232q-87 -103 -305 -299h254v127h162v-274h-660z" />
<glyph unicode="&#xb3;" horiz-adv-x="839" d="M53 817h199q5 -62 43.5 -104.5t118.5 -42.5q64 0 105.5 38.5t41.5 96.5q0 65 -47 100t-133 35q-41 0 -70 -2v133q18 -2 54 -2q75 0 121 32.5t46 96.5q0 55 -31 89t-95 34q-116 0 -132 -125h-198q15 126 101.5 198t234.5 72q137 0 227 -68t90 -186q0 -153 -158 -200 q189 -42 189 -221q0 -127 -101.5 -197t-248.5 -70q-164 0 -258 82.5t-99 210.5z" />
<glyph unicode="&#xb4;" horiz-adv-x="598" d="M84 1231l129 348h301l-219 -348h-211z" />
<glyph unicode="&#xb5;" horiz-adv-x="1193" d="M23 848v211h405v-666q0 -207 145 -207q45 0 77.5 18.5t49.5 50.5t24 67t7 77v449h-131v211h406v-848h129v-211h-379l-11 121q-28 -47 -55.5 -77.5t-53 -43t-43.5 -16.5t-40 -4q-34 0 -60.5 10.5t-36.5 20.5t-28 30v-469h-274v1276h-131z" />
<glyph unicode="&#xb6;" horiz-adv-x="1216" d="M111 1022q0 200 133 321q62 54 140.5 78.5t207.5 24.5h459v-150h-74v-1638h-158v1638h-231v-1638h-162v969q-151 31 -233 134t-82 261z" />
<glyph unicode="&#xb7;" horiz-adv-x="598" d="M143 436v303h308v-303h-308z" />
<glyph unicode="&#xb8;" horiz-adv-x="595" d="M113 -301l135 6q0 -27 14.5 -43t38.5 -16q26 0 40.5 16.5t14.5 44.5q0 66 -51 66q-30 0 -39 -25l-133 19l76 274h125l-58 -176q24 12 58 12q70 0 111.5 -44.5t41.5 -119.5q0 -88 -49.5 -134t-134.5 -46q-84 0 -134 42.5t-56 123.5z" />
<glyph unicode="&#xb9;" horiz-adv-x="839" d="M213 1245v150l168 51h158v-752h100v-147h-393v147h94v594z" />
<glyph unicode="&#xba;" horiz-adv-x="724" d="M49 1120q0 163 76 260t233 97q161 0 241.5 -93.5t80.5 -259.5q0 -157 -79.5 -253.5t-231.5 -96.5q-162 0 -241 91t-79 255zM227 1122q0 -213 142 -213q131 0 131 217t-129 217q-144 0 -144 -221z" />
<glyph unicode="&#xbb;" horiz-adv-x="811" d="M41 227l137 342l-135 340h197l170 -340l-170 -342h-199zM383 911h201l174 -340l-170 -344h-199l131 344z" />
<glyph unicode="&#xbc;" horiz-adv-x="1878" d="M227 1245v150l168 51h158v-752h100v-147h-393v147h94v594zM580 0l557 1446h143l-553 -1446h-147zM1047 256v131l307 512h272v-506h172v-137h-172v-109h98v-147h-389v147h97v109h-385zM1235 391h211q0 235 2 352z" />
<glyph unicode="&#xbd;" horiz-adv-x="1878" d="M213 1245v150l168 51h158v-752h100v-147h-393v147h94v594zM553 0l557 1446h143l-553 -1446h-147zM1069 0v145q224 199 320 299q124 134 124 226q0 42 -30.5 72t-81.5 30q-58 0 -89 -35.5t-34 -95.5h-195q10 140 96 209.5t226 69.5q146 0 227.5 -69.5t81.5 -172.5 q0 -62 -28 -123.5t-68 -108.5q-87 -103 -305 -299h254v127h162v-274h-660z" />
<glyph unicode="&#xbe;" horiz-adv-x="1878" d="M98 817h199q5 -62 43.5 -104.5t118.5 -42.5q64 0 105.5 38.5t41.5 96.5q0 65 -47 100t-133 35q-41 0 -70 -2v133q18 -2 54 -2q76 0 122 32.5t46 96.5q0 55 -31.5 89t-95.5 34q-116 0 -132 -125h-198q15 126 101.5 198t234.5 72q137 0 227 -68t90 -186q0 -153 -158 -200 q189 -42 189 -221q0 -127 -101.5 -197t-248.5 -70q-164 0 -258 82.5t-99 210.5zM651 0l557 1446h144l-553 -1446h-148zM1098 256v131l307 512h272v-506h172v-137h-172v-109h99v-147h-390v147h97v109h-385zM1286 391h211q0 235 2 352z" />
<glyph unicode="&#xbf;" horiz-adv-x="1024" d="M47 350q0 117 47 204t146 189q8 8 31 32t29 30.5t22.5 25.5t20.5 28.5t13.5 28.5t12 35t5.5 38.5t3 48.5v12h264v-66q0 -59 -7 -98.5t-30 -76t-41.5 -57t-66.5 -67.5q-9 -9 -36.5 -35t-37.5 -36.5t-31.5 -34t-31 -40t-21.5 -40.5t-16.5 -48.5t-4.5 -51.5 q0 -84 46.5 -137.5t128.5 -53.5q65 0 110.5 21.5t70.5 63t37 87.5t17 109h260q0 -241 -134 -366.5t-359 -125.5q-85 0 -165 25.5t-143 73t-101 121t-38 161.5zM358 1143v303h308v-303h-308z" />
<glyph unicode="&#xc0;" horiz-adv-x="1366" d="M8 0v211h119l336 1034h-103v201h666v-201h-106l311 -1034h121v-211h-529v211h121l-70 246h-421l-78 -246h114v-211h-481zM299 1843h363l235 -256h-250zM504 668h319l-155 567z" />
<glyph unicode="&#xc1;" horiz-adv-x="1366" d="M8 0v211h119l336 1034h-103v201h666v-201h-106l311 -1034h121v-211h-529v211h121l-70 246h-421l-78 -246h114v-211h-481zM475 1587l236 256h362l-348 -256h-250zM504 668h319l-155 567z" />
<glyph unicode="&#xc2;" horiz-adv-x="1366" d="M8 0v211h119l336 1034h-103v201h666v-201h-106l311 -1034h121v-211h-529v211h121l-70 246h-421l-78 -246h114v-211h-481zM319 1587l216 268h296l209 -268h-200l-158 129l-164 -129h-199zM504 668h319l-155 567z" />
<glyph unicode="&#xc3;" horiz-adv-x="1366" d="M8 0v211h119l336 1034h-103v201h666v-201h-106l311 -1034h121v-211h-529v211h121l-70 246h-421l-78 -246h114v-211h-481zM350 1585q0 42 2 72.5t11.5 73t27 69.5t51 46.5t80.5 19.5q53 0 114.5 -27t109.5 -53.5t67 -26.5q11 0 19 3t13 10t8 12.5t5 18t2.5 17.5t1 20.5 t0.5 17.5h156q0 -131 -40 -201t-138 -70q-53 0 -108 26.5t-100 52.5t-73 26q-22 0 -33.5 -15.5t-13.5 -35t-2 -56.5h-160zM504 668h319l-155 567z" />
<glyph unicode="&#xc4;" horiz-adv-x="1366" d="M8 0v211h119l336 1034h-103v201h666v-201h-106l311 -1034h121v-211h-529v211h121l-70 246h-421l-78 -246h114v-211h-481zM377 1602v225h248v-225h-248zM504 668h319l-155 567zM760 1602v225h246v-225h-246z" />
<glyph unicode="&#xc5;" horiz-adv-x="1366" d="M8 0v211h119l336 1034h-103v201h666v-201h-106l311 -1034h121v-211h-529v211h121l-70 246h-421l-78 -246h114v-211h-481zM504 668h319l-155 567zM522 1700q0 70 48.5 118t121.5 48q71 0 119.5 -49t48.5 -117q0 -70 -48.5 -119t-119.5 -49q-73 0 -121.5 49t-48.5 119z M618 1700q0 -33 20.5 -54.5t53.5 -21.5q32 0 52 22t20 54q0 33 -20 55.5t-52 22.5t-53 -22.5t-21 -55.5z" />
<glyph unicode="&#xc6;" horiz-adv-x="1792" d="M20 0v211h123l447 1024h-129v211h1239v-490h-219v267h-402l41 -361h301v-209h-274l51 -442h283v301h219v-512h-899v211h121l-29 246h-395l-105 -246h117v-211h-490zM578 659h296l-65 568z" />
<glyph unicode="&#xc7;" d="M72 707q0 72 6 141t21.5 147.5t40.5 145.5t66.5 130.5t94.5 108t129.5 71t167.5 26.5q108 0 185 -36.5t126 -131.5l13 137h211v-485h-232q-3 55 -17.5 104.5t-43.5 96t-80.5 74.5t-120.5 28q-144 0 -217.5 -130t-73.5 -417q0 -52 4.5 -104.5t15 -116.5t31 -119 t49.5 -101.5t74 -73t101 -26.5q79 0 137.5 57.5t84.5 133.5t27 153h277q0 -114 -25.5 -206.5t-79.5 -167t-147 -120.5t-219 -57l-35 -108q27 12 62 12q75 0 119 -45.5t44 -122.5q0 -90 -53.5 -137t-142.5 -47t-143 44t-60 126l143 6q0 -27 16 -44.5t42 -17.5q27 0 43 18 t16 46q0 68 -55 68q-32 0 -41 -25l-141 18l61 211q-113 11 -199 59.5t-138.5 119t-85.5 166.5t-45.5 190t-12.5 201z" />
<glyph unicode="&#xc8;" horiz-adv-x="1193" d="M37 0v211h141v1024h-141v211h1063v-488h-230v269h-415v-363h366v-213h-366v-440h415v311h230v-522h-1063zM213 1843h362l236 -256h-250z" />
<glyph unicode="&#xc9;" horiz-adv-x="1193" d="M37 0v211h141v1024h-141v211h1063v-488h-230v269h-415v-363h366v-213h-366v-440h415v311h230v-522h-1063zM387 1587l236 256h362l-348 -256h-250z" />
<glyph unicode="&#xca;" horiz-adv-x="1193" d="M37 0v211h141v1024h-141v211h1063v-488h-230v269h-415v-363h366v-213h-366v-440h415v311h230v-522h-1063zM233 1587l216 268h296l209 -268h-200l-158 129l-164 -129h-199z" />
<glyph unicode="&#xcb;" horiz-adv-x="1193" d="M37 0v211h141v1024h-141v211h1063v-488h-230v269h-415v-363h366v-213h-366v-440h415v311h230v-522h-1063zM281 1602v225h247v-225h-247zM664 1602v225h245v-225h-245z" />
<glyph unicode="&#xcc;" horiz-adv-x="641" d="M-61 1843h362l236 -256h-250zM43 0v211h135v1024h-135v211h549v-211h-135v-1024h135v-211h-549z" />
<glyph unicode="&#xcd;" horiz-adv-x="641" d="M43 0v211h135v1024h-135v211h549v-211h-135v-1024h135v-211h-549zM111 1587l235 256h363l-349 -256h-249z" />
<glyph unicode="&#xce;" horiz-adv-x="641" d="M-43 1587l215 268h297l209 -268h-201l-158 129l-163 -129h-199zM43 0v211h135v1024h-135v211h549v-211h-135v-1024h135v-211h-549z" />
<glyph unicode="&#xcf;" horiz-adv-x="641" d="M0 1602v225h248v-225h-248zM43 0v211h135v1024h-135v211h549v-211h-135v-1024h135v-211h-549zM383 1602v225h246v-225h-246z" />
<glyph unicode="&#xd0;" horiz-adv-x="1323" d="M43 657v193h139v385h-133v211h529q239 0 364 -60q303 -144 303 -679q0 -88 -9.5 -166t-35 -159t-65 -144.5t-104 -116t-148.5 -80.5q-125 -41 -348 -41h-488v211h133v446h-137zM451 850h337v-193h-335v-446h129q115 0 183 31t124 123q37 62 57.5 162.5t20.5 185.5 q0 396 -203 493q-55 27 -199 27h-114v-383z" />
<glyph unicode="&#xd1;" horiz-adv-x="1366" d="M31 0v211h133v1024h-133v211h555l387 -1235v1024h-119v211h483v-211h-139v-1235h-414l-387 1235v-1024h125v-211h-491zM350 1585q0 42 2 72.5t11.5 73t27 69.5t51 46.5t80.5 19.5q53 0 114.5 -27t109.5 -53.5t67 -26.5q11 0 19 3t13 10t8 12.5t5 18t2.5 17.5t1 20.5 t0.5 17.5h156q0 -131 -40 -201t-138 -70q-53 0 -108 26.5t-100 52.5t-73 26q-22 0 -33.5 -15.5t-13.5 -35t-2 -56.5h-160z" />
<glyph unicode="&#xd2;" horiz-adv-x="1366" d="M72 727q0 124 21 233t68 205t117 164.5t174 108t234 39.5t233.5 -42.5t171.5 -113.5t113 -170t64.5 -207t19.5 -229q0 -126 -22 -236t-69.5 -204.5t-117 -162t-170 -105.5t-223.5 -38q-133 0 -239 40.5t-175 110t-115 167.5t-65.5 206.5t-19.5 233.5zM297 1843h362 l236 -256h-250zM348 735q0 -58 6 -115t19 -121.5t38 -118.5t59.5 -98.5t87.5 -70t118 -25.5q78 0 138.5 36t96 90.5t58.5 128t31 140.5t8 136q0 58 -5 112.5t-17 118.5t-35.5 116.5t-57 96.5t-86 69t-117.5 25q-80 0 -142 -33.5t-99 -85t-60.5 -122.5t-32 -138.5 t-8.5 -140.5z" />
<glyph unicode="&#xd3;" horiz-adv-x="1366" d="M72 727q0 124 21 233t68 205t117 164.5t174 108t234 39.5t233.5 -42.5t171.5 -113.5t113 -170t64.5 -207t19.5 -229q0 -126 -22 -236t-69.5 -204.5t-117 -162t-170 -105.5t-223.5 -38q-133 0 -239 40.5t-175 110t-115 167.5t-65.5 206.5t-19.5 233.5zM348 735 q0 -58 6 -115t19 -121.5t38 -118.5t59.5 -98.5t87.5 -70t118 -25.5q78 0 138.5 36t96 90.5t58.5 128t31 140.5t8 136q0 58 -5 112.5t-17 118.5t-35.5 116.5t-57 96.5t-86 69t-117.5 25q-80 0 -142 -33.5t-99 -85t-60.5 -122.5t-32 -138.5t-8.5 -140.5zM473 1587l236 256h362 l-348 -256h-250z" />
<glyph unicode="&#xd4;" horiz-adv-x="1366" d="M72 727q0 124 21 233t68 205t117 164.5t174 108t234 39.5t233.5 -42.5t171.5 -113.5t113 -170t64.5 -207t19.5 -229q0 -126 -22 -236t-69.5 -204.5t-117 -162t-170 -105.5t-223.5 -38q-133 0 -239 40.5t-175 110t-115 167.5t-65.5 206.5t-19.5 233.5zM319 1587l216 268 h296l209 -268h-200l-158 129l-164 -129h-199zM348 735q0 -58 6 -115t19 -121.5t38 -118.5t59.5 -98.5t87.5 -70t118 -25.5q78 0 138.5 36t96 90.5t58.5 128t31 140.5t8 136q0 58 -5 112.5t-17 118.5t-35.5 116.5t-57 96.5t-86 69t-117.5 25q-80 0 -142 -33.5t-99 -85 t-60.5 -122.5t-32 -138.5t-8.5 -140.5z" />
<glyph unicode="&#xd5;" horiz-adv-x="1366" d="M72 727q0 124 21 233t68 205t117 164.5t174 108t234 39.5t233.5 -42.5t171.5 -113.5t113 -170t64.5 -207t19.5 -229q0 -126 -22 -236t-69.5 -204.5t-117 -162t-170 -105.5t-223.5 -38q-133 0 -239 40.5t-175 110t-115 167.5t-65.5 206.5t-19.5 233.5zM348 735 q0 -58 6 -115t19 -121.5t38 -118.5t59.5 -98.5t87.5 -70t118 -25.5q78 0 138.5 36t96 90.5t58.5 128t31 140.5t8 136q0 58 -5 112.5t-17 118.5t-35.5 116.5t-57 96.5t-86 69t-117.5 25q-80 0 -142 -33.5t-99 -85t-60.5 -122.5t-32 -138.5t-8.5 -140.5zM350 1585q0 42 2 72.5 t11.5 73t27 69.5t51 46.5t80.5 19.5q53 0 114.5 -27t109.5 -53.5t67 -26.5q11 0 19 3t13 10t8 12.5t5 18t2.5 17.5t1 20.5t0.5 17.5h156q0 -131 -40 -201t-138 -70q-53 0 -108 26.5t-100 52.5t-73 26q-22 0 -33.5 -15.5t-13.5 -35t-2 -56.5h-160z" />
<glyph unicode="&#xd6;" horiz-adv-x="1366" d="M72 727q0 124 21 233t68 205t117 164.5t174 108t234 39.5t233.5 -42.5t171.5 -113.5t113 -170t64.5 -207t19.5 -229q0 -126 -22 -236t-69.5 -204.5t-117 -162t-170 -105.5t-223.5 -38q-133 0 -239 40.5t-175 110t-115 167.5t-65.5 206.5t-19.5 233.5zM348 735 q0 -58 6 -115t19 -121.5t38 -118.5t59.5 -98.5t87.5 -70t118 -25.5q78 0 138.5 36t96 90.5t58.5 128t31 140.5t8 136q0 58 -5 112.5t-17 118.5t-35.5 116.5t-57 96.5t-86 69t-117.5 25q-80 0 -142 -33.5t-99 -85t-60.5 -122.5t-32 -138.5t-8.5 -140.5zM367 1602v225h247 v-225h-247zM750 1602v225h245v-225h-245z" />
<glyph unicode="&#xd7;" horiz-adv-x="1482" d="M264 928l178 190l308 -293l292 303l166 -157l-293 -305l312 -295l-178 -191l-312 295l-291 -303l-165 160l290 303z" />
<glyph unicode="&#xd8;" horiz-adv-x="1366" d="M41 -207l203 359q-166 201 -166 548q0 110 17.5 214t61.5 208.5t110.5 181.5t173 125t241.5 48q126 0 268 -52l113 211h256l-195 -340q168 -209 168 -548q0 -118 -20 -227t-66 -210.5t-114 -176.5t-171.5 -120t-230.5 -45q-144 0 -274 58l-125 -234h-250zM344 709 q0 -178 43 -303q52 92 234.5 422t216.5 395q-64 37 -142 37q-81 0 -144.5 -36.5t-101.5 -93t-63 -132t-34 -146t-9 -143.5zM524 223q80 -41 158 -41q80 0 142 40.5t97.5 101.5t58 142t30.5 152t8 142q0 151 -39 287q-56 -95 -121 -211.5t-105.5 -191t-120 -221.5 t-108.5 -200z" />
<glyph unicode="&#xd9;" horiz-adv-x="1280" d="M20 1235v211h525v-211h-123v-799q0 -112 53.5 -175.5t163.5 -63.5q113 0 168 62t55 173v803h-129v211h531v-211h-131v-768q0 -39 -2 -70.5t-12 -85.5t-28 -96t-54 -89.5t-84.5 -79t-125.5 -52.5t-172 -21q-99 0 -178 19t-131 49t-90 75t-58 87.5t-31.5 97t-14 93 t-2.5 85.5v756h-130zM256 1843h362l236 -256h-250z" />
<glyph unicode="&#xda;" horiz-adv-x="1280" d="M20 1235v211h525v-211h-123v-799q0 -112 53.5 -175.5t163.5 -63.5q113 0 168 62t55 173v803h-129v211h531v-211h-131v-768q0 -39 -2 -70.5t-12 -85.5t-28 -96t-54 -89.5t-84.5 -79t-125.5 -52.5t-172 -21q-99 0 -178 19t-131 49t-90 75t-58 87.5t-31.5 97t-14 93 t-2.5 85.5v756h-130zM430 1587l236 256h362l-348 -256h-250z" />
<glyph unicode="&#xdb;" horiz-adv-x="1280" d="M20 1235v211h525v-211h-123v-799q0 -112 53.5 -175.5t163.5 -63.5q113 0 168 62t55 173v803h-129v211h531v-211h-131v-768q0 -39 -2 -70.5t-12 -85.5t-28 -96t-54 -89.5t-84.5 -79t-125.5 -52.5t-172 -21q-99 0 -178 19t-131 49t-90 75t-58 87.5t-31.5 97t-14 93 t-2.5 85.5v756h-130zM276 1587l216 268h296l209 -268h-200l-158 129l-164 -129h-199z" />
<glyph unicode="&#xdc;" horiz-adv-x="1280" d="M20 1235v211h525v-211h-123v-799q0 -112 53.5 -175.5t163.5 -63.5q113 0 168 62t55 173v803h-129v211h531v-211h-131v-768q0 -39 -2 -70.5t-12 -85.5t-28 -96t-54 -89.5t-84.5 -79t-125.5 -52.5t-172 -21q-99 0 -178 19t-131 49t-90 75t-58 87.5t-31.5 97t-14 93 t-2.5 85.5v756h-130zM326 1602v225h247v-225h-247zM709 1602v225h245v-225h-245z" />
<glyph unicode="&#xdd;" d="M33 1235v211h536v-211h-151l221 -500l221 500h-147v211h493v-211h-90l-358 -754v-270h131v-211h-529v211h127v270l-356 754h-98zM412 1587l235 256h363l-348 -256h-250z" />
<glyph unicode="&#xde;" horiz-adv-x="1150" d="M43 0v211h141v1024h-141v211h416v-166h61q208 0 305 -25q95 -25 159.5 -93t92 -154.5t27.5 -188.5q0 -24 -2 -54.5t-20 -100.5t-50 -121q-28 -44 -67.5 -76t-78 -48.5t-90.5 -26t-89.5 -11.5t-88.5 -2h-159v-168h127v-211h-543zM459 590h121q241 0 241 237q0 114 -56 182 t-161 68h-145v-487z" />
<glyph unicode="&#xdf;" horiz-adv-x="1193" d="M31 0v211h135v807q0 223 120 336.5t343 113.5q115 0 204.5 -36.5t145 -117.5t55.5 -198q0 -260 -237 -325q164 -22 242.5 -130.5t78.5 -279.5q0 -136 -63.5 -237.5t-188.5 -135.5q-63 -16 -174 -16q-57 0 -125 10v225q66 -16 103 -16q89 0 132.5 63.5t43.5 155.5 q0 78 -27 144t-86 96q-37 18 -119 18h-24v193q95 0 135.5 49.5t40.5 146.5q0 80 -40 137.5t-116 57.5q-174 0 -174 -225v-1047h-405z" />
<glyph unicode="&#xe0;" horiz-adv-x="1110" d="M68 293q0 83 32.5 147t83 102t121.5 62t139 32.5t144 8.5h84v57q0 38 -5 67.5t-19 60.5t-44.5 48t-75.5 17q-67 0 -106 -43.5t-39 -110.5h-272q15 177 124 261.5t297 84.5q90 0 181 -26t139 -82q29 -34 47 -74t25 -91t8.5 -84t1.5 -93v-426h135v-211h-362q-2 94 -2 137 q-55 -89 -129 -128.5t-181 -39.5q-151 0 -239 87.5t-88 236.5zM244 1579h301l129 -348h-211zM342 319q0 -62 42.5 -103.5t104.5 -41.5q88 0 136.5 59t48.5 148v108h-68q-264 0 -264 -170z" />
<glyph unicode="&#xe1;" horiz-adv-x="1110" d="M68 293q0 83 32.5 147t83 102t121.5 62t139 32.5t144 8.5h84v57q0 38 -5 67.5t-19 60.5t-44.5 48t-75.5 17q-67 0 -106 -43.5t-39 -110.5h-272q15 177 124 261.5t297 84.5q90 0 181 -26t139 -82q29 -34 47 -74t25 -91t8.5 -84t1.5 -93v-426h135v-211h-362q-2 94 -2 137 q-55 -89 -129 -128.5t-181 -39.5q-151 0 -239 87.5t-88 236.5zM342 319q0 -62 42.5 -103.5t104.5 -41.5q88 0 136.5 59t48.5 148v108h-68q-264 0 -264 -170zM414 1231l129 348h301l-219 -348h-211z" />
<glyph unicode="&#xe2;" horiz-adv-x="1110" d="M68 293q0 83 32.5 147t83 102t121.5 62t139 32.5t144 8.5h84v57q0 38 -5 67.5t-19 60.5t-44.5 48t-75.5 17q-67 0 -106 -43.5t-39 -110.5h-272q15 177 124 261.5t297 84.5q90 0 181 -26t139 -82q29 -34 47 -74t25 -91t8.5 -84t1.5 -93v-426h135v-211h-362q-2 94 -2 137 q-55 -89 -129 -128.5t-181 -39.5q-151 0 -239 87.5t-88 236.5zM233 1231l175 309h274l168 -309h-180l-125 153l-129 -153h-183zM342 319q0 -62 42.5 -103.5t104.5 -41.5q88 0 136.5 59t48.5 148v108h-68q-264 0 -264 -170z" />
<glyph unicode="&#xe3;" horiz-adv-x="1110" d="M68 293q0 83 32.5 147t83 102t121.5 62t139 32.5t144 8.5h84v57q0 38 -5 67.5t-19 60.5t-44.5 48t-75.5 17q-67 0 -106 -43.5t-39 -110.5h-272q15 177 124 261.5t297 84.5q90 0 181 -26t139 -82q29 -34 47 -74t25 -91t8.5 -84t1.5 -93v-426h135v-211h-362q-2 94 -2 137 q-55 -89 -129 -128.5t-181 -39.5q-151 0 -239 87.5t-88 236.5zM233 1241q0 34 1.5 60t6 61.5t15.5 61t28 49.5t45.5 36.5t65.5 12.5q51 0 109.5 -27t103 -53.5t62.5 -26.5q10 0 18 3t12.5 10t8 12t5 17.5t2 17.5t1 20t0.5 18h147q0 -130 -37.5 -200t-130.5 -70 q-50 0 -102.5 26.5t-95 52.5t-68.5 26q-29 0 -37 -25.5t-8 -81.5h-152zM342 319q0 -62 42.5 -103.5t104.5 -41.5q88 0 136.5 59t48.5 148v108h-68q-264 0 -264 -170z" />
<glyph unicode="&#xe4;" horiz-adv-x="1110" d="M68 293q0 83 32.5 147t83 102t121.5 62t139 32.5t144 8.5h84v57q0 38 -5 67.5t-19 60.5t-44.5 48t-75.5 17q-67 0 -106 -43.5t-39 -110.5h-272q15 177 124 261.5t297 84.5q90 0 181 -26t139 -82q29 -34 47 -74t25 -91t8.5 -84t1.5 -93v-426h135v-211h-362q-2 94 -2 137 q-55 -89 -129 -128.5t-181 -39.5q-151 0 -239 87.5t-88 236.5zM252 1274v223h248v-223h-248zM342 319q0 -62 42.5 -103.5t104.5 -41.5q88 0 136.5 59t48.5 148v108h-68q-264 0 -264 -170zM594 1274v223h248v-223h-248z" />
<glyph unicode="&#xe5;" horiz-adv-x="1110" d="M68 293q0 83 32.5 147t83 102t121.5 62t139 32.5t144 8.5h84v57q0 38 -5 67.5t-19 60.5t-44.5 48t-75.5 17q-67 0 -106 -43.5t-39 -110.5h-272q15 177 124 261.5t297 84.5q90 0 181 -26t139 -82q29 -34 47 -74t25 -91t8.5 -84t1.5 -93v-426h135v-211h-362q-2 94 -2 137 q-55 -89 -129 -128.5t-181 -39.5q-151 0 -239 87.5t-88 236.5zM342 319q0 -62 42.5 -103.5t104.5 -41.5q88 0 136.5 59t48.5 148v108h-68q-264 0 -264 -170zM346 1407q0 85 57.5 140t143.5 55q89 0 146 -53t57 -142q0 -87 -58 -141t-145 -54q-81 0 -141 57t-60 138z M461 1407q0 -35 25.5 -61.5t60.5 -26.5q37 0 63.5 25t26.5 63q0 37 -25.5 62.5t-62.5 25.5t-62.5 -25.5t-25.5 -62.5z" />
<glyph unicode="&#xe6;" horiz-adv-x="1705" d="M70 293q0 77 24.5 137.5t69.5 99t98.5 65t122.5 39.5t129 18t129 5h49v15q0 225 -153 225q-67 0 -108.5 -44.5t-41.5 -111.5h-280q0 74 23.5 133.5t62.5 98.5t91 65t107 37.5t113 11.5q117 0 200 -30t146 -111q48 73 134 107t185 34q118 0 206.5 -35.5t152.5 -121.5 t84 -185.5t20 -236.5v-25h-682q1 -49 5.5 -88t18 -85t35.5 -76.5t61 -51t91 -20.5q165 0 195 182h268q-17 -185 -141 -281t-314 -96q-126 0 -229 50.5t-156 154.5q-52 -104 -150 -154.5t-220 -50.5q-153 0 -249.5 87.5t-96.5 238.5zM342 307q0 -63 40.5 -108t102.5 -45 q54 0 95.5 26t65.5 68.5t36 91t12 98.5v51h-94q-126 0 -192 -49.5t-66 -132.5zM961 659h391q0 97 -46.5 168.5t-138.5 71.5q-100 0 -153 -69t-53 -171z" />
<glyph unicode="&#xe7;" horiz-adv-x="1024" d="M80 518q0 90 11.5 167.5t41 153t75.5 128.5t120 85.5t170 32.5q93 0 151.5 -29.5t122.5 -103.5l6 105h195v-381h-232q-5 89 -48 148t-130 59q-203 0 -203 -361q0 -37 3 -71t10 -75t21.5 -73.5t35 -61t53.5 -44t74 -15.5q70 0 115 59.5t53 133.5h260q-13 -103 -29 -146 q-49 -127 -150 -189t-239 -67l-35 -108q24 12 58 12q70 0 111.5 -44.5t41.5 -119.5q0 -88 -49.5 -134t-134.5 -46q-84 0 -134 42.5t-56 123.5l135 6q0 -27 14.5 -43t38.5 -16q26 0 40.5 16.5t14.5 44.5q0 66 -51 66q-30 0 -39 -25l-133 19l57 213q-366 72 -366 538z" />
<glyph unicode="&#xe8;" horiz-adv-x="1110" d="M74 530q0 121 28.5 221t86 175t150.5 117t214 42q126 0 221 -41.5t152.5 -117t85.5 -175t28 -221.5v-38h-692q0 -330 209 -330q88 0 139.5 47t63.5 135h276q-24 -182 -153 -278.5t-314 -96.5q-136 0 -232.5 38.5t-153.5 113t-83 175t-26 234.5zM266 1579h301l129 -348 h-211zM358 666h402q0 97 -56 161t-141 64q-93 0 -147.5 -65.5t-57.5 -159.5z" />
<glyph unicode="&#xe9;" horiz-adv-x="1110" d="M74 530q0 121 28.5 221t86 175t150.5 117t214 42q126 0 221 -41.5t152.5 -117t85.5 -175t28 -221.5v-38h-692q0 -330 209 -330q88 0 139.5 47t63.5 135h276q-24 -182 -153 -278.5t-314 -96.5q-136 0 -232.5 38.5t-153.5 113t-83 175t-26 234.5zM358 666h402q0 97 -56 161 t-141 64q-93 0 -147.5 -65.5t-57.5 -159.5zM434 1231l129 348h301l-219 -348h-211z" />
<glyph unicode="&#xea;" horiz-adv-x="1110" d="M74 530q0 121 28.5 221t86 175t150.5 117t214 42q126 0 221 -41.5t152.5 -117t85.5 -175t28 -221.5v-38h-692q0 -330 209 -330q88 0 139.5 47t63.5 135h276q-24 -182 -153 -278.5t-314 -96.5q-136 0 -232.5 38.5t-153.5 113t-83 175t-26 234.5zM256 1231l174 309h275 l167 -309h-180l-125 153l-129 -153h-182zM358 666h402q0 97 -56 161t-141 64q-93 0 -147.5 -65.5t-57.5 -159.5z" />
<glyph unicode="&#xeb;" horiz-adv-x="1110" d="M74 530q0 121 28.5 221t86 175t150.5 117t214 42q126 0 221 -41.5t152.5 -117t85.5 -175t28 -221.5v-38h-692q0 -330 209 -330q88 0 139.5 47t63.5 135h276q-24 -182 -153 -278.5t-314 -96.5q-136 0 -232.5 38.5t-153.5 113t-83 175t-26 234.5zM268 1274v223h248v-223 h-248zM358 666h402q0 97 -56 161t-141 64q-93 0 -147.5 -65.5t-57.5 -159.5zM610 1274v223h248v-223h-248z" />
<glyph unicode="&#xec;" horiz-adv-x="641" d="M20 1579h302l129 -348h-211zM55 0v211h138v639h-138v211h412v-850h135v-211h-547z" />
<glyph unicode="&#xed;" horiz-adv-x="641" d="M55 0v211h138v639h-138v211h412v-850h135v-211h-547zM188 1231l129 348h301l-219 -348h-211z" />
<glyph unicode="&#xee;" horiz-adv-x="641" d="M10 1231l174 309h275l168 -309h-181l-124 153l-129 -153h-183zM55 0v211h138v639h-138v211h412v-850h135v-211h-547z" />
<glyph unicode="&#xef;" horiz-adv-x="641" d="M23 1274v223h247v-223h-247zM55 0v211h138v639h-138v211h412v-850h135v-211h-547zM365 1274v223h247v-223h-247z" />
<glyph unicode="&#xf0;" horiz-adv-x="1150" d="M78 516q0 87 10.5 157.5t37 139.5t76.5 125t124 96q101 56 229 56q63 0 119 -27q-58 88 -103 133l-243 -86l-58 125l195 68q-54 60 -105 106l228 92q53 -48 112 -117l168 58l58 -121l-121 -43q144 -189 212 -361.5t68 -390.5q0 -162 -55 -286.5t-171.5 -198.5t-280.5 -74 q-128 0 -225 40t-156.5 113.5t-89 172.5t-29.5 223zM354 508q0 -59 11.5 -114t36 -106.5t71 -82.5t109.5 -31q53 0 94.5 21t65.5 53t39 76.5t20.5 86t5.5 87.5q0 45 -2.5 82t-9.5 85t-22.5 84t-38.5 68.5t-61 50t-87 17.5q-61 0 -105 -24.5t-68 -60t-38 -90t-17.5 -99.5 t-3.5 -103z" />
<glyph unicode="&#xf1;" d="M53 0v211h140v639h-140v211h379l17 -133q42 78 116.5 118.5t165.5 40.5q174 0 253 -87t79 -259v-530h133v-211h-508v211h100v494q0 73 -35.5 116t-107.5 43q-76 0 -129 -50t-53 -126v-477h108v-211h-518zM307 1241q0 34 1.5 60t6 61.5t15.5 61t28 49.5t45.5 36.5 t65.5 12.5q51 0 109 -27t102.5 -53.5t62.5 -26.5q8 0 14.5 2t11 6t8 8t6 11.5t4 12.5t2 14.5t1 14.5t1 15t0.5 14h147q0 -130 -37.5 -200t-130.5 -70q-50 0 -102.5 26.5t-95 52.5t-68.5 26q-29 0 -37 -25.5t-8 -81.5h-152z" />
<glyph unicode="&#xf2;" horiz-adv-x="1150" d="M72 516q0 100 17 184t54.5 156.5t94.5 123t141 79t190 28.5q260 0 385 -146.5t125 -405.5q0 -123 -30.5 -225t-90.5 -179t-156.5 -119.5t-221.5 -42.5q-257 0 -382.5 143.5t-125.5 403.5zM276 1579h302l129 -348h-211zM348 524q0 -51 5 -95.5t20 -93t38.5 -82.5t65 -56.5 t96.5 -22.5t96.5 21.5t66 55t40 80.5t20.5 91.5t5 95.5q0 55 -4 99.5t-17.5 97t-37 87.5t-66.5 59t-101 24q-227 0 -227 -361z" />
<glyph unicode="&#xf3;" horiz-adv-x="1150" d="M72 516q0 100 17 184t54.5 156.5t94.5 123t141 79t190 28.5q260 0 385 -146.5t125 -405.5q0 -123 -30.5 -225t-90.5 -179t-156.5 -119.5t-221.5 -42.5q-257 0 -382.5 143.5t-125.5 403.5zM348 524q0 -51 5 -95.5t20 -93t38.5 -82.5t65 -56.5t96.5 -22.5t96.5 21.5t66 55 t40 80.5t20.5 91.5t5 95.5q0 55 -4 99.5t-17.5 97t-37 87.5t-66.5 59t-101 24q-227 0 -227 -361zM444 1231l129 348h301l-219 -348h-211z" />
<glyph unicode="&#xf4;" horiz-adv-x="1150" d="M72 516q0 100 17 184t54.5 156.5t94.5 123t141 79t190 28.5q260 0 385 -146.5t125 -405.5q0 -123 -30.5 -225t-90.5 -179t-156.5 -119.5t-221.5 -42.5q-257 0 -382.5 143.5t-125.5 403.5zM266 1231l174 309h275l168 -309h-181l-124 153l-129 -153h-183zM348 524 q0 -51 5 -95.5t20 -93t38.5 -82.5t65 -56.5t96.5 -22.5t96.5 21.5t66 55t40 80.5t20.5 91.5t5 95.5q0 55 -4 99.5t-17.5 97t-37 87.5t-66.5 59t-101 24q-227 0 -227 -361z" />
<glyph unicode="&#xf5;" horiz-adv-x="1150" d="M72 516q0 100 17 184t54.5 156.5t94.5 123t141 79t190 28.5q260 0 385 -146.5t125 -405.5q0 -123 -30.5 -225t-90.5 -179t-156.5 -119.5t-221.5 -42.5q-257 0 -382.5 143.5t-125.5 403.5zM264 1241q0 34 1.5 60t6 61.5t15.5 61t28 49.5t45.5 36.5t65.5 12.5q51 0 109 -27 t102.5 -53.5t62.5 -26.5q8 0 14.5 2t11 6t8 8t6 11.5t4 12.5t2 14.5t1 14.5t1 15t0.5 14h147q0 -130 -37.5 -200t-130.5 -70q-50 0 -102.5 26.5t-95 52.5t-68.5 26q-29 0 -37 -25.5t-8 -81.5h-152zM348 524q0 -51 5 -95.5t20 -93t38.5 -82.5t65 -56.5t96.5 -22.5t96.5 21.5 t66 55t40 80.5t20.5 91.5t5 95.5q0 55 -4 99.5t-17.5 97t-37 87.5t-66.5 59t-101 24q-227 0 -227 -361z" />
<glyph unicode="&#xf6;" horiz-adv-x="1150" d="M72 516q0 100 17 184t54.5 156.5t94.5 123t141 79t190 28.5q260 0 385 -146.5t125 -405.5q0 -123 -30.5 -225t-90.5 -179t-156.5 -119.5t-221.5 -42.5q-257 0 -382.5 143.5t-125.5 403.5zM279 1274v223h247v-223h-247zM348 524q0 -51 5 -95.5t20 -93t38.5 -82.5t65 -56.5 t96.5 -22.5t96.5 21.5t66 55t40 80.5t20.5 91.5t5 95.5q0 55 -4 99.5t-17.5 97t-37 87.5t-66.5 59t-101 24q-227 0 -227 -361zM621 1274v223h247v-223h-247z" />
<glyph unicode="&#xf7;" horiz-adv-x="1452" d="M145 532v230h1160v-230h-1160zM596 129v262h256v-262h-256zM596 903v260h256v-260h-256z" />
<glyph unicode="&#xf8;" horiz-adv-x="1150" d="M61 -223l170 313q-81 69 -120 184t-39 236q0 126 28 228t85.5 181t155 122.5t228.5 43.5q85 0 181 -22l104 211h215l-154 -295q162 -144 162 -432q0 -282 -133.5 -428t-359.5 -146q-71 0 -193 31l-112 -227h-218zM334 526q0 -115 26 -200l310 569q-52 10 -90 10 q-58 0 -103 -24t-71.5 -61.5t-43 -89.5t-22.5 -101t-6 -103zM473 172q44 -20 111 -20q233 0 233 364q0 124 -33 236z" />
<glyph unicode="&#xf9;" horiz-adv-x="1193" d="M20 850v211h408v-701q0 -75 34.5 -124.5t106.5 -49.5q85 0 124.5 59.5t39.5 147.5v457h-133v211h406v-850h129v-211h-379l-8 121q-57 -79 -117.5 -115.5t-153.5 -36.5q-153 0 -239 76t-86 231v574h-132zM297 1579h301l129 -348h-211z" />
<glyph unicode="&#xfa;" horiz-adv-x="1193" d="M20 850v211h408v-701q0 -75 34.5 -124.5t106.5 -49.5q85 0 124.5 59.5t39.5 147.5v457h-133v211h406v-850h129v-211h-379l-8 121q-57 -79 -117.5 -115.5t-153.5 -36.5q-153 0 -239 76t-86 231v574h-132zM467 1231l129 348h301l-219 -348h-211z" />
<glyph unicode="&#xfb;" horiz-adv-x="1193" d="M20 850v211h408v-701q0 -75 34.5 -124.5t106.5 -49.5q85 0 124.5 59.5t39.5 147.5v457h-133v211h406v-850h129v-211h-379l-8 121q-57 -79 -117.5 -115.5t-153.5 -36.5q-153 0 -239 76t-86 231v574h-132zM287 1231l174 309h274l168 -309h-180l-125 153l-129 -153h-182z " />
<glyph unicode="&#xfc;" horiz-adv-x="1193" d="M20 850v211h408v-701q0 -75 34.5 -124.5t106.5 -49.5q85 0 124.5 59.5t39.5 147.5v457h-133v211h406v-850h129v-211h-379l-8 121q-57 -79 -117.5 -115.5t-153.5 -36.5q-153 0 -239 76t-86 231v574h-132zM285 1274v223h247v-223h-247zM627 1274v223h247v-223h-247z" />
<glyph unicode="&#xfd;" horiz-adv-x="1110" d="M25 850v211h475v-211h-109l172 -571l172 571h-110v211h465v-211h-93l-348 -975q-30 -87 -52 -135t-52 -82q-93 -109 -289 -109q-42 0 -162 21v215q76 -27 142 -27q24 0 43 4t42.5 15.5t43 38.5t32.5 69l25 76l-311 889h-86zM424 1231l129 348h301l-219 -348h-211z" />
<glyph unicode="&#xfe;" horiz-adv-x="1193" d="M35 -219h133v1454h-133v211h379v-539q33 82 124 132.5t193 50.5q90 0 162 -38.5t115 -97t71.5 -136t39.5 -148t11 -140.5q0 -112 -22 -209t-67 -177.5t-124.5 -127.5t-185.5 -47q-88 0 -165.5 37.5t-123.5 106.5v-332h133v-209h-540v209zM428 539q0 -165 55 -261t162 -96 q60 0 103.5 33.5t64.5 88.5t30 109.5t9 112.5q0 98 -20.5 175t-68.5 126.5t-118 49.5q-61 0 -105.5 -30.5t-67.5 -81.5t-33.5 -107t-10.5 -119z" />
<glyph unicode="&#xff;" horiz-adv-x="1110" d="M25 850v211h475v-211h-109l172 -571l172 571h-110v211h465v-211h-93l-348 -975q-30 -87 -52 -135t-52 -82q-93 -109 -289 -109q-42 0 -162 21v215q76 -27 142 -27q24 0 43 4t42.5 15.5t43 38.5t32.5 69l25 76l-311 889h-86zM258 1274v223h248v-223h-248zM600 1274v223 h248v-223h-248z" />
<glyph unicode="&#x152;" horiz-adv-x="1878" d="M76 692q0 142 27 283t85 242q134 233 480 233q41 0 103.5 -2t86.5 -2h922v-488h-230v267h-393v-361h340v-217h-340v-436h393v303h230v-514h-897q-41 0 -121 -4t-141 -4q-213 0 -336 98q-79 63 -128 172t-65 212t-16 218zM352 713q0 -132 36.5 -268t117.5 -197 q66 -49 219 -49q56 0 162 8v1026q-153 6 -154 6q-113 0 -186 -31.5t-125 -120.5q-36 -61 -53 -170t-17 -204z" />
<glyph unicode="&#x153;" horiz-adv-x="1835" d="M72 520q0 122 27.5 222.5t83.5 179t151 122t221 43.5q121 0 207 -47t160 -147q68 102 156.5 149.5t211.5 47.5q225 0 351 -150t126 -395v-49h-718q3 -49 8 -87t20.5 -88.5t39.5 -83t67.5 -56t101.5 -23.5q80 0 128 53.5t67 138.5h270q-21 -189 -141.5 -285t-317.5 -96 q-123 0 -213.5 40.5t-158.5 135.5q-63 -97 -153 -137.5t-216 -40.5q-123 0 -216.5 42t-150 118t-84.5 174.5t-28 218.5zM344 510q0 -50 5 -94.5t20 -92.5t38.5 -82t65 -56.5t96.5 -22.5q54 0 96 26t65.5 65t38 93t19.5 100.5t5 96.5q0 47 -5.5 91t-20.5 91.5t-38.5 82 t-63.5 57t-92 22.5q-56 0 -99 -25t-67 -63t-39 -91t-19.5 -99.5t-4.5 -98.5zM1063 670h420q-15 113 -57.5 168t-147.5 55q-96 0 -150 -61.5t-65 -161.5z" />
<glyph unicode="&#x178;" d="M33 1235v211h536v-211h-151l221 -500l221 500h-147v211h493v-211h-90l-358 -754v-270h131v-211h-529v211h127v270l-356 754h-98zM301 1602v225h248v-225h-248zM684 1602v225h246v-225h-246z" />
<glyph unicode="&#x2c6;" horiz-adv-x="598" d="M-10 1231l174 309h274l168 -309h-180l-125 153l-129 -153h-182z" />
<glyph unicode="&#x2dc;" horiz-adv-x="598" d="M-16 1241q0 35 1.5 60t6 61.5t15.5 61.5t28 49t45 36.5t65 12.5q51 0 109.5 -27t103 -53.5t62.5 -26.5q10 0 18 3t12.5 10t8 12t5 17.5t2 17.5t1 20t0.5 18h147q0 -130 -37.5 -200t-130.5 -70q-50 0 -102.5 26.5t-95 52.5t-68.5 26q-29 0 -37 -25.5t-8 -81.5h-151z" />
<glyph unicode="&#x2000;" horiz-adv-x="933" />
<glyph unicode="&#x2001;" horiz-adv-x="1866" />
<glyph unicode="&#x2002;" horiz-adv-x="933" />
<glyph unicode="&#x2003;" horiz-adv-x="1866" />
<glyph unicode="&#x2004;" horiz-adv-x="622" />
<glyph unicode="&#x2005;" horiz-adv-x="466" />
<glyph unicode="&#x2006;" horiz-adv-x="311" />
<glyph unicode="&#x2007;" horiz-adv-x="311" />
<glyph unicode="&#x2008;" horiz-adv-x="233" />
<glyph unicode="&#x2009;" horiz-adv-x="373" />
<glyph unicode="&#x200a;" horiz-adv-x="103" />
<glyph unicode="&#x2010;" horiz-adv-x="894" d="M72 451v251h751v-251h-751z" />
<glyph unicode="&#x2011;" horiz-adv-x="894" d="M72 451v251h751v-251h-751z" />
<glyph unicode="&#x2012;" horiz-adv-x="894" d="M72 451v251h751v-251h-751z" />
<glyph unicode="&#x2013;" d="M72 451v251h1093v-251h-1093z" />
<glyph unicode="&#x2014;" horiz-adv-x="1853" d="M72 451v251h1710v-251h-1710z" />
<glyph unicode="&#x2018;" horiz-adv-x="598" d="M33 946l258 500h198l-153 -500h-303z" />
<glyph unicode="&#x2019;" horiz-adv-x="598" d="M59 944l148 502h305l-258 -502h-195z" />
<glyph unicode="&#x201a;" horiz-adv-x="600" d="M59 -248l150 504h305l-260 -504h-195z" />
<glyph unicode="&#x201c;" horiz-adv-x="997" d="M33 946l258 500h198l-153 -500h-303zM432 946l258 500h199l-154 -500h-303z" />
<glyph unicode="&#x201d;" horiz-adv-x="1001" d="M59 946l154 500h303l-258 -500h-199zM459 946l153 500h303l-258 -500h-198z" />
<glyph unicode="&#x201e;" horiz-adv-x="1001" d="M59 -244l154 500h303l-258 -500h-199zM459 -244l153 500h303l-258 -500h-198z" />
<glyph unicode="&#x2022;" horiz-adv-x="624" d="M94 467v451h434v-451h-434z" />
<glyph unicode="&#x2026;" horiz-adv-x="2048" d="M229 0v217h224v-217h-224zM913 0v217h222v-217h-222zM1595 0v217h224v-217h-224z" />
<glyph unicode="&#x202f;" horiz-adv-x="373" />
<glyph unicode="&#x2039;" horiz-adv-x="468" d="M61 571l170 340h201l-139 -340l137 -342h-199z" />
<glyph unicode="&#x203a;" horiz-adv-x="468" d="M47 227l137 342l-135 340h197l170 -340l-170 -342h-199z" />
<glyph unicode="&#x205f;" horiz-adv-x="466" />
<glyph unicode="&#x20ac;" horiz-adv-x="1325" d="M59 489v179h158q0 92 2 139h-160v178h179q38 248 166.5 371t308.5 123q111 0 182 -39t115 -135v141h204v-424h-204q-12 118 -76 181t-172 63q-49 0 -87 -12t-73 -42t-59.5 -87t-36.5 -140h371v-178h-388q-4 -78 -4 -139h392v-179h-381q9 -89 33 -151.5t60 -97t77.5 -49.5 t93.5 -15q95 0 149.5 63t69.5 199h248q-15 -232 -141 -351.5t-351 -119.5q-220 0 -346.5 126t-161.5 396h-168z" />
<glyph unicode="&#x2122;" horiz-adv-x="1474" d="M29 1233v213h557v-213h-103v86h-100v-445h70v-108h-281v108h64v445h-103v-86h-104zM633 766v108h65v461h-65v111h278l119 -416l119 416h274v-111h-59v-461h59v-108h-247v108h53v451l-162 -561h-84l-164 563v-453h53v-108h-239z" />
<glyph unicode="&#xe000;" horiz-adv-x="1064" d="M0 0v1065h1065v-1065h-1065z" />
</font>
</defs>
</svg>
